<?xml version="1.0" encoding="UTF-8"?><svg id="Layer_1" xmlns="http://www.w3.org/2000/svg" viewBox="0 0 630.77 210.73"><defs><style>.cls-1{fill:#14264c;}.cls-2{fill:#21bc8a;opacity:.85;}.cls-3{fill:white;}</style></defs><path class="cls-3" d="m164.19,86.19v-8.02c0-7.28,2.63-13.48,7.9-18.59,5.27-5.12,11.62-7.67,19.05-7.67h56.19v16.03h-56.19c-3,0-5.56,1.04-7.67,3.13-2.11,2.09-3.17,4.61-3.17,7.56v7.48c0,2.7,1.06,5.01,3.17,6.95,2.11,1.93,4.67,2.9,7.67,2.9h34.58c7.43,0,13.78,2.57,19.05,7.71,5.27,5.14,7.9,11.35,7.9,18.63v11.83c0,7.28-2.63,13.49-7.9,18.63s-11.62,7.71-19.05,7.71h-61.46v-16.11h61.46c3,0,5.56-1.01,7.67-3.02,2.11-2.01,3.17-4.44,3.17-7.29v-11.68c0-2.85-1.06-5.29-3.17-7.33-2.11-2.04-4.67-3.05-7.67-3.05h-34.58c-7.43,0-13.78-2.52-19.05-7.56-5.27-5.04-7.9-11.12-7.9-18.25Z"/><path class="cls-3" d="m270.23,131.92v-22.14c0-7.84,2.79-14.53,8.36-20.08,5.57-5.55,12.3-8.32,20.19-8.32h28.02c4.43,0,8.22,1.58,11.38,4.73,3.16,3.16,4.73,6.95,4.73,11.38v92.45h-16.11v-92.45h-28.02c-3.46,0-6.4,1.21-8.82,3.63-2.42,2.42-3.63,5.36-3.63,8.82v21.83c0,3.46,1.22,6.43,3.66,8.89s5.37,3.7,8.78,3.7h18.86v16.11h-18.86c-7.84,0-14.56-2.8-20.16-8.4-5.6-5.6-8.4-12.32-8.4-20.16Z"/><path class="cls-3" d="m361.04,131.92v-22.14c0-7.84,2.79-14.53,8.36-20.08,5.57-5.55,12.3-8.32,20.19-8.32h44.13v79.09h-16.11v-62.99h-28.02c-3.46,0-6.4,1.21-8.82,3.63-2.42,2.42-3.63,5.36-3.63,8.82v21.83c0,3.46,1.22,6.43,3.66,8.89,2.44,2.47,5.37,3.7,8.78,3.7h18.86v16.11h-18.86c-7.84,0-14.56-2.8-20.16-8.4-5.6-5.6-8.4-12.32-8.4-20.16Z"/><path class="cls-3" d="m451.28,131.92v-22.14c0-7.84,2.79-14.53,8.36-20.08s12.3-8.32,20.19-8.32h44.13v79.09h-16.11v-62.99h-28.02c-3.46,0-6.4,1.21-8.82,3.63-2.42,2.42-3.63,5.36-3.63,8.82v21.83c0,3.46,1.22,6.43,3.66,8.89,2.44,2.47,5.37,3.7,8.78,3.7h18.86v16.11h-18.86c-7.84,0-14.56-2.8-20.16-8.4-5.6-5.6-8.4-12.32-8.4-20.16Z"/><path class="cls-3" d="m542.29,86.19v-8.02c0-7.28,2.63-13.48,7.9-18.59,5.27-5.12,11.62-7.67,19.05-7.67h56.19v16.03h-56.19c-3,0-5.56,1.04-7.67,3.13-2.11,2.09-3.17,4.61-3.17,7.56v7.48c0,2.7,1.06,5.01,3.17,6.95,2.11,1.93,4.67,2.9,7.67,2.9h34.58c7.43,0,13.78,2.57,19.05,7.71,5.27,5.14,7.9,11.35,7.9,18.63v11.83c0,7.28-2.63,13.49-7.9,18.63-5.27,5.14-11.62,7.71-19.05,7.71h-61.46v-16.11h61.46c3,0,5.56-1.01,7.67-3.02,2.11-2.01,3.17-4.44,3.17-7.29v-11.68c0-2.85-1.06-5.29-3.17-7.33-2.11-2.04-4.67-3.05-7.67-3.05h-34.58c-7.43,0-13.78-2.52-19.05-7.56-5.27-5.04-7.9-11.12-7.9-18.25Z"/><path class="cls-1" d="m59.98,112.81l30.7-30.5c3.02-3.9,4.78-8.65,4.78-13.91,0-12.85-10.65-23.27-23.78-23.27-5.31,0-10.21,1.71-14.17,4.58h0s-.02,0-.03.02c-.76.55-1.48,1.15-2.17,1.78-3.96,2.6-8.03,2.21-8.03,2.21-5.97-.6-10.64-5.68-10.64-11.87,0-3.9,1.91-7.01,4.73-9.54l10.91-10.67c3.01-2.94,5.4-5.73,5.4-9.84,0-6.52-5.4-11.81-12.07-11.81-4.2,0-7.05,2.1-10.06,5.28L4.87,35.78C.8,40.22-.35,45.37.09,49.69c1.28,12.79,10.65,23.27,23.78,23.27,6.44,0,12.27-2.51,16.56-6.57h0c4-3.04,7.83-2.02,7.83-2.02l1.91.36c5.03,1.37,8.73,6,8.73,11.51,0,3.9-1.86,7.37-4.73,9.54l-13.17,12.15-30.7,30.5c-4.06,4.44-4.78,8.64-4.78,13.91,0,12.85,10.65,23.27,23.78,23.27,6.44,0,12.27-2.51,16.56-6.57h0c4-3.04,7.83-2.02,7.83-2.02l1.91.36c5.03,1.37,8.73,6,8.73,11.51,0,3.9-1.86,7.37-4.73,9.54l-10.91,10.67c-3.24,2.94-5.4,5.73-5.4,9.84,0,6.52,5.4,11.81,12.07,11.81,4.2,0,7.05-2.1,10.06-5.28l30.7-30.5c3.02-3.9,4.78-8.65,4.78-13.91,0-12.85-10.65-23.27-23.78-23.27-5.31,0-10.21,1.71-14.17,4.58h0s-.02,0-.03.02c-.76.55-1.48,1.15-2.17,1.78-3.96,2.6-8.03,2.21-8.03,2.21-5.97-.6-10.64-5.68-10.64-11.87,0-3.9,1.91-7.01,4.73-9.54l13.17-12.15Z"/><path class="cls-2" d="m70,112.81l30.7-30.5c3.02-3.9,4.78-8.65,4.78-13.91,0-12.85-10.65-23.27-23.78-23.27-5.31,0-10.21,1.71-14.17,4.58h0s-.02,0-.03.02c-.76.55-1.48,1.15-2.17,1.78-3.96,2.6-8.03,2.21-8.03,2.21-5.97-.6-10.64-5.68-10.64-11.87,0-3.9,1.91-7.01,4.73-9.54l10.91-10.67c3.01-2.94,5.4-5.73,5.4-9.84,0-6.52-5.4-11.81-12.07-11.81-4.2,0-7.05,2.1-10.06,5.28l-30.7,30.5c-4.06,4.44-5.21,9.59-4.78,13.91,1.28,12.79,10.65,23.27,23.78,23.27,6.44,0,12.27-2.51,16.56-6.57h0c4-3.04,7.83-2.02,7.83-2.02l1.91.36c5.03,1.37,8.73,6,8.73,11.51,0,3.9-1.86,7.37-4.73,9.54l-13.17,12.15-30.7,30.5c-4.06,4.44-4.78,8.64-4.78,13.91,0,12.85,10.65,23.27,23.78,23.27,6.44,0,12.27-2.51,16.56-6.57h0c4-3.04,7.83-2.02,7.83-2.02l1.91.36c5.03,1.37,8.73,6,8.73,11.51,0,3.9-1.86,7.37-4.73,9.54l-10.91,10.67c-3.24,2.94-5.4,5.73-5.4,9.84,0,6.52,5.4,11.81,12.07,11.81,4.2,0,7.05-2.1,10.06-5.28l30.7-30.5c3.02-3.9,4.78-8.65,4.78-13.91,0-12.85-10.65-23.27-23.78-23.27-5.31,0-10.21,1.71-14.17,4.58h0s-.02,0-.03.02c-.76.55-1.48,1.15-2.17,1.78-3.96,2.6-8.03,2.21-8.03,2.21-5.97-.6-10.64-5.68-10.64-11.87,0-3.9,1.91-7.01,4.73-9.54l13.17-12.15Z"/></svg>